<?xml version="1.0" standalone="no"?>
<!DOCTYPE svg PUBLIC "-//W3C//DTD SVG 20010904//EN"
 "http://www.w3.org/TR/2001/REC-SVG-20010904/DTD/svg10.dtd">
<svg version="1.0" xmlns="http://www.w3.org/2000/svg"
 width="512.000000pt" height="512.000000pt" viewBox="0 0 512.000000 512.000000"
 preserveAspectRatio="xMidYMid meet">

<g transform="translate(0.000000,512.000000) scale(0.100000,-0.100000)"
fill="#000000" stroke="none">
<path d="M2485 4491 c-88 -23 -120 -53 -1023 -954 -1018 -1017 -967 -959 -967
-1107 0 -90 30 -162 91 -224 62 -61 134 -91 224 -91 145 1 91 -46 968 829
l782 781 783 -782 c880 -880 831 -838 977 -838 181 0 315 134 315 315 0 148
57 82 -968 1107 -818 818 -918 915 -971 939 -62 28 -157 40 -211 25z"/>
<path d="M2454 2992 c-28 -10 -68 -32 -90 -49 -21 -18 -442 -436 -935 -930
-990 -992 -940 -935 -941 -1067 -1 -77 14 -130 52 -189 58 -87 182 -145 287
-134 126 13 98 -12 951 840 l783 782 786 -789 c881 -884 831 -841 973 -840 94
0 159 27 223 92 68 69 92 129 91 227 0 62 -6 91 -24 130 -19 41 -196 223 -939
968 -752 753 -926 922 -969 944 -71 35 -175 41 -248 15z"/>
</g>
</svg>
